<svg xmlns="http://www.w3.org/2000/svg" viewBox="0 0 200 200">
<g color="#1b1f3a"><path d="M100,97 C123,96 139,111 138,131 C137,153 121,167 99,166 C77,165 61,151 62,129 C63,109 79,98 100,97 Z" fill="currentColor"/><path d="M100,63 C110,63 118,70 118,79 C118,89 109,96 99,96 C89,96 82,89 82,79 C82,70 90,63 100,63 Z" fill="currentColor"/><path d="M82,100 L50,68 L24,54" fill="none" stroke="currentColor" stroke-width="7" stroke-linecap="round" stroke-linejoin="round"/><path d="M79,111 L44,101 L14,96" fill="none" stroke="currentColor" stroke-width="6" stroke-linecap="round" stroke-linejoin="round"/><path d="M79,122 L45,131 L15,142" fill="none" stroke="currentColor" stroke-width="6.5" stroke-linecap="round" stroke-linejoin="round"/><path d="M82,132 L51,156 L25,177" fill="none" stroke="currentColor" stroke-width="7.5" stroke-linecap="round" stroke-linejoin="round"/><path d="M118,100 L150,68 L176,54" fill="none" stroke="currentColor" stroke-width="7" stroke-linecap="round" stroke-linejoin="round"/><path d="M121,111 L156,101 L186,96" fill="none" stroke="currentColor" stroke-width="6" stroke-linecap="round" stroke-linejoin="round"/><path d="M121,122 L155,131 L185,142" fill="none" stroke="currentColor" stroke-width="6.5" stroke-linecap="round" stroke-linejoin="round"/><path d="M118,132 L149,156 L175,177" fill="none" stroke="currentColor" stroke-width="7.5" stroke-linecap="round" stroke-linejoin="round"/></g>
</svg>
