<svg width="90" height="90" viewBox="0 0 90 90" fill="none" xmlns="http://www.w3.org/2000/svg">
<path d="M73.045 42.5736C71.399 51.9568 63.7419 59.0518 53.6992 59.0518H47.3204C46.0188 59.0488 44.7101 60.2558 44.4937 61.5818L41.6975 79.3087C41.538 80.3156 41.0645 80.6509 40.0423 80.6509H29.7923C28.7569 80.6509 28.51 80.3054 28.6716 79.2822L29.834 67.0298L17.5203 66.3927C16.4839 66.3927 16.0948 65.8177 16.2574 64.7945L24.6581 11.5214C24.8177 10.5124 25.4466 10.0786 26.4667 10.0786H47.7725C58.0296 10.0786 64.5172 16.9826 65.3138 25.9339C71.4254 30.0651 74.2775 35.5467 73.045 42.5736Z" fill="#001C64"/>
<path d="M32.9574 47.1829L27.8639 79.4829C27.7024 80.506 28.4929 81.4316 29.5282 81.4316H40.3615C41.3826 81.4316 42.2514 80.6889 42.4109 79.68L45.264 61.5832C45.4235 60.5743 46.2922 59.8316 47.3144 59.8316H53.6922C63.736 59.8316 72.2587 52.5039 73.8163 42.5751C74.9218 35.5278 71.3737 29.1156 65.3078 25.9354C65.2926 26.673 65.2285 27.4198 65.1107 28.1758C63.5531 38.1045 55.0303 45.4312 44.9866 45.4312H35.0068C33.9857 45.4312 33.116 46.1739 32.9574 47.1829Z" fill="#0070E0"/>
<path d="M29.8306 67.0311H17.2254C16.189 67.0311 15.3985 66.1055 15.5601 65.0823L24.0604 11.1823C24.2189 10.1744 25.0887 9.43164 26.1098 9.43164H47.7702C58.0263 9.43164 65.4852 16.8955 65.3105 25.9352C62.7581 24.5971 59.7607 23.831 56.4748 23.831H38.4164C37.3952 23.831 36.5265 24.5737 36.367 25.5827L29.8306 67.0311Z" fill="#003087"/>
</svg>
