<svg width="100" height="100" viewBox="0 0 100 100" fill="none" xmlns="http://www.w3.org/2000/svg">
<g clip-path="url(#clip0_1503_2845)">
<path d="M48.1082 19.4316C48.1082 23.5167 44.8053 26.8631 40.7201 26.8631C36.6349 26.8631 33.332 23.5167 33.332 19.4316C33.332 15.3464 36.6349 12 40.7201 12C44.8053 12 48.1082 15.3029 48.1082 19.4316Z" fill="black"/>
<path d="M66.6668 19.4316C66.6668 23.5167 63.3639 26.8631 59.2787 26.8631C55.1935 26.8631 51.8906 23.5167 51.8906 19.4316C51.8906 15.3464 55.1935 12 59.2787 12C63.3639 12 66.6668 15.3029 66.6668 19.4316Z" fill="black"/>
<path d="M8.77917 47.941L33.9421 36.772L25.4676 63.8037C23.8596 68.6277 19.8178 73.3648 12.9513 73.3648C5.82393 73.3648 0.000375112 67.5412 0.000375112 60.3704C-0.0430843 54.2861 3.69443 50.2009 8.77917 47.941Z" fill="black"/>
<path d="M91.2216 47.941L66.0586 36.772L74.5332 63.8037C76.1412 68.6277 80.2263 73.3648 87.0929 73.3648C94.2203 73.3648 100 67.5412 100 60.3704C100 54.2861 96.3063 50.2009 91.2216 47.941Z" fill="black"/>
<path d="M64.5392 39.249C61.9751 33.7732 56.4123 29.9487 49.9803 29.9487C43.5483 29.9487 38.0289 33.7732 35.4648 39.249H64.5392Z" fill="black"/>
<path d="M66.0579 55.3725H33.9414V46.7241H66.0579V55.3725Z" fill="black"/>
<path d="M66.0579 71.4961H33.9414V62.8477H66.0579V71.4961Z" fill="black"/>
<path d="M35.4648 78.96C38.0289 84.4358 43.5917 88.2603 50.0237 88.2603C56.4557 88.2603 61.9751 84.4358 64.5392 78.96H35.4648Z" fill="black"/>
</g>
<defs>
<clipPath id="clip0_1503_2845">
<rect width="100" height="100" fill="white"/>
</clipPath>
</defs>
</svg>
