<svg width="90" height="90" viewBox="0 0 90 90" fill="none" xmlns="http://www.w3.org/2000/svg">
<path d="M41.0028 29.6869L39.1557 8.76687C39.1557 6.69881 41.5742 5 44.6163 5C47.6637 5 50.0861 6.69881 50.0861 8.76687L48.2345 29.6869C48.0264 30.9469 46.4873 31.9194 44.6142 31.9194C42.7479 31.9194 41.207 30.9469 41.0028 29.6869Z" fill="#FFC220"/>
<path d="M33.3063 38.4495C34.2422 36.8265 34.1702 35.0113 33.181 34.2029L15.9851 22.1429C14.1992 21.1083 11.5165 22.3537 9.995 24.9916C8.46873 27.6265 8.73948 30.571 10.5251 31.6038L29.5631 40.4692C30.7553 40.9125 32.372 40.0695 33.3063 38.4495Z" fill="#FFC220"/>
<path d="M55.9299 38.4495C56.8655 40.0704 58.4792 40.9125 59.6708 40.4692L78.712 31.6038C80.5052 30.571 80.7625 27.6265 79.247 24.9916C77.7183 22.3537 75.0329 21.1083 73.2499 22.1429L56.0541 34.2029C55.0705 35.0113 54.9944 36.8289 55.9299 38.4495Z" fill="#FFC220"/>
<path d="M41.0028 60.2766L39.1557 81.1961C39.1557 83.2671 41.5742 84.962 44.6163 84.962C47.6637 84.962 50.0861 83.2671 50.0861 81.1961L48.2345 60.2766C48.0264 59.0178 46.4873 58.0501 44.6142 58.0501C42.7479 58.0501 41.207 59.0178 41.0028 60.2766Z" fill="#FFC220"/>
<path d="M56.0541 55.7719L73.2499 67.8227C75.0329 68.8543 77.7183 67.6045 79.2469 64.9752C80.7625 62.3379 80.5051 59.3916 78.712 58.3543L59.6708 49.4994C58.4792 49.0505 56.8675 49.8922 55.9299 51.5149C54.9944 53.134 55.0705 54.954 56.0541 55.7719Z" fill="#FFC220"/>
<path d="M29.5631 49.4997L10.5251 58.3546C8.73948 59.3919 8.46873 62.3382 9.995 64.9755C11.5165 67.6045 14.1992 68.8546 15.9851 67.823L33.181 55.7722C34.1702 54.954 34.2419 53.1373 33.3069 51.5152C32.3714 49.8922 30.7553 49.0507 29.5631 49.4997Z" fill="#FFC220"/>
</svg>
